<svg width="201" height="102" viewBox="0 0 201 102" fill="none" xmlns="http://www.w3.org/2000/svg">
<path d="M68.7258 34.7337C66.0742 34.7337 63.9232 35.6494 62.2206 37.29L62.6069 35.2107H60.4989C58.0428 35.2107 55.9539 36.9514 55.5056 39.3503L51.9096 58.5321H58.2336L60.6563 45.641C61.3097 42.1642 63.4606 40.4759 66.2125 40.4759C67.5097 40.4759 68.3586 40.8574 68.9881 41.63L73.8051 37.0897C72.6509 35.4539 71.0008 34.7337 68.7258 34.7337Z" fill="#356793"/>
<path d="M91.7421 35.2107L91.3224 37.4379C90.0013 35.74 87.817 34.7337 85.0175 34.7337C78.6935 34.7337 72.8751 39.9942 71.5826 46.8953C70.2854 53.8106 74.1341 59.0186 80.5154 59.0186C83.2624 59.0186 85.8187 58.0028 87.7789 56.3192L87.3592 58.5417H93.6307L98.0089 35.2202H91.7421V35.2107ZM89.8916 46.8476C89.2049 50.5676 86.2956 53.1763 82.7712 53.1763C79.2897 53.1763 77.3724 50.5676 78.064 46.8476C78.7507 43.18 81.6552 40.5665 85.132 40.5665C88.6516 40.5713 90.5832 43.1848 89.8916 46.8476Z" fill="#356793"/>
<path d="M110.242 53.1239C106.717 53.1239 104.638 50.5723 105.33 46.8523C106.026 43.1848 109.064 40.6237 112.593 40.6237C114.658 40.6237 116.218 41.3487 117.219 42.7031L122.046 38.6016C120.243 36.093 117.329 34.6908 113.7 34.6908C106.603 34.6908 100.155 39.956 98.853 46.9C97.5605 53.8154 101.991 59.0234 109.131 59.0234C112.808 59.0234 116.199 57.6785 119.055 55.0602L115.717 50.9586C114.248 52.3608 112.364 53.1239 110.242 53.1239Z" fill="#356793"/>
<path d="M136.74 35.2107L138.562 25.5053H132.238L130.416 35.2107H124.96L123.915 40.7668H129.371L126.042 58.5369H132.366L135.705 40.7668H141.161L142.196 35.2107H136.74Z" fill="#356793"/>
<path d="M145.773 35.2107L141.394 58.5322H147.771L152.144 35.2107H145.773Z" fill="#356793"/>
<path d="M151.028 24.2033C148.949 24.2033 147.156 25.7962 146.769 27.8232C146.393 29.8548 147.59 31.4478 149.669 31.4478C151.739 31.4478 153.537 29.8548 153.918 27.8232C154.3 25.7962 153.103 24.2033 151.028 24.2033Z" fill="#EF7B8F"/>
<path d="M164.878 53.1239C161.354 53.1239 159.274 50.5723 159.975 46.8523C160.657 43.1848 163.705 40.6237 167.229 40.6237C169.309 40.6237 170.863 41.3487 171.865 42.7031L176.687 38.6016C174.889 36.093 171.965 34.6908 168.345 34.6908C161.249 34.6908 154.801 39.956 153.499 46.9C152.201 53.8154 156.627 59.0234 163.776 59.0234C167.449 59.0234 170.84 57.6785 173.692 55.0602L170.363 50.9586C168.889 52.3608 167.005 53.1239 164.878 53.1239Z" fill="#356793"/>
<path d="M190.765 34.6813C183.864 34.6813 177.512 39.9465 176.219 46.8476C174.898 53.8965 179.343 59.0139 186.63 59.0139C190.403 59.0139 193.985 57.6689 196.798 55.0029L193.78 51.2925C192.082 52.8806 189.897 53.6962 187.584 53.6962C184.351 53.6962 182.395 52.0126 182.166 49.113L199.221 49.0653C199.66 48.0065 199.922 47.1337 200.075 46.3086C201.334 39.6079 197.433 34.6813 190.765 34.6813ZM183.058 44.3819C184.336 41.6348 186.774 39.9894 189.773 39.9465C192.721 39.9465 194.271 41.4917 194.347 44.3819H183.058Z" fill="#356793"/>
<path d="M56.1494 24.6707C55.3577 21.6709 53.5597 18.981 51.1751 17.1115C49.5584 15.8381 47.7413 14.9463 45.743 14.4503C44.4124 14.1117 43.0674 13.9543 41.6939 13.9686C39.7338 13.9924 37.8022 14.3692 35.9041 15.0893C35.2412 15.3421 34.6498 15.5996 34.1395 15.8715C30.863 17.5741 28.321 20.0255 26.4992 23.2113C25.5358 24.9044 24.8681 26.7548 24.5104 28.7532C24.4293 29.1967 24.3578 29.831 24.2815 30.6656C24.0621 33.2553 23.6233 38.1867 22.9843 45.4502C22.9413 45.9128 22.9032 46.3563 22.8603 46.7617C22.431 51.5453 22.1973 54.1922 22.164 54.6691C22.1592 54.7883 22.1258 54.9457 22.2307 55.0077C23.7092 56.0045 25.4118 56.8915 27.3529 57.6642C27.7106 57.812 28.1112 57.9551 28.5595 58.1029L29.5324 47.6774L29.5706 47.272L29.9092 43.2993C29.9092 43.2707 29.9521 43.2516 29.9807 43.2754C31.3209 44.2913 32.7993 45.0448 34.4113 45.5503C37.6639 46.571 41.1598 46.4565 44.4076 45.3596C45.9385 44.8445 47.3597 44.1434 48.657 43.2611C48.9097 43.0847 49.1625 42.9034 49.401 42.727C49.4916 42.6602 49.5774 42.5934 49.6633 42.5219C52.1624 40.5951 54.0414 38.1819 55.2957 35.2774C55.3339 35.2059 55.3625 35.1248 55.3959 35.0485C55.9539 33.7179 56.3068 32.3158 56.5023 30.9041C56.5214 30.8135 56.531 30.7133 56.5453 30.6227C56.798 28.6292 56.6645 26.6499 56.1494 24.6707ZM46.7016 36.6224C42.7718 40.3805 36.8007 40.5093 33.3525 36.9037C29.9187 33.3125 30.3193 27.351 34.2492 23.5929C38.1742 19.8395 44.1453 19.7107 47.5839 23.3019C51.032 26.9075 50.6314 32.869 46.7016 36.6224ZM93.0441 0.609985C79.8763 0.667216 63.3128 0.729228 43.3584 0.786459C42.5762 0.791228 41.9324 0.805529 41.4316 0.824606C39.6718 0.905683 37.9978 1.10122 36.4048 1.41598C34.521 1.79275 32.7039 2.35076 30.9489 3.08998C27.4816 4.54937 24.353 6.52383 21.5773 9.02767C17.514 12.6857 14.5141 17.0352 12.6017 22.0858C12.1534 23.2543 11.7814 24.4895 11.4761 25.7867C11.4618 25.8248 11.4285 25.8344 11.4046 25.8106C10.4555 24.8138 9.32045 24.2176 7.98507 24.0316C7.15523 23.9124 6.36831 23.9601 5.63385 24.1556C5.06631 24.3082 4.57031 24.4942 4.15539 24.7041C3.53539 25.0189 2.96309 25.4242 2.44324 25.9202C1.37971 26.9552 0.70248 28.1761 0.425865 29.6116C0.0634047 31.4621 0.57848 33.3745 1.87094 34.7433C2.31448 35.2154 2.83432 35.5922 3.42093 35.8736C4.62755 36.465 5.90093 36.6224 7.24108 36.3601C8.49538 36.1121 9.61615 35.5493 10.5986 34.6622C10.6558 34.6145 10.6845 34.6241 10.6892 34.7051C10.8132 36.7941 11.1948 38.8877 11.8291 40.9862C12.6923 43.8096 13.9752 46.4088 15.6969 48.7791C15.7637 48.8697 15.8304 48.9508 15.902 49.0128C15.9449 49.051 15.9688 49.0366 15.9688 48.9842C16.2454 45.5503 16.5363 42.3216 16.8177 39.3027C16.9178 38.2391 17.1086 36.0978 17.3852 32.8881C17.4043 32.6544 17.4091 32.4445 17.4091 32.2681C17.3375 29.2587 17.8383 26.3876 18.897 23.6501C20.1227 20.5024 21.9493 17.6838 24.3816 15.2038C26.7424 12.7858 29.4561 10.8972 32.5275 9.5189C35.3461 8.25028 38.4127 7.60167 41.4698 7.56351C44.3313 7.5349 47.9607 7.51582 52.3627 7.51582C52.582 7.51582 53.0256 7.51581 53.6933 7.51105C53.7982 7.51105 63.8851 7.47289 83.9587 7.39182C84.0446 7.39182 84.078 7.43474 84.0494 7.51105L79.2372 22.9061C79.2229 22.949 79.1895 22.9729 79.1514 22.9729C73.9004 22.9681 70.8768 22.9681 70.0898 22.9776C69.2981 22.9824 68.5589 23.1207 67.8769 23.3782C66.3412 23.9553 65.1346 24.9521 64.2475 26.3685C63.6371 27.3462 63.2937 28.3811 63.2222 29.4638C63.2079 29.7261 63.184 29.9931 63.1602 30.2555H64.4908C65.7022 29.9359 66.9803 29.769 68.3062 29.769C68.8832 29.769 69.4269 29.7976 69.942 29.8691C69.942 29.8262 69.942 29.7976 69.9468 29.7595C69.9515 29.7356 69.9706 29.7118 70.004 29.7118H83.9492C83.9969 29.7118 84.0398 29.6831 84.0541 29.6307L93.0965 0.686295C93.1109 0.633833 93.0966 0.609985 93.0441 0.609985ZM8.81493 32.5876C7.38893 33.923 5.24278 33.9516 4.01709 32.6496C2.7914 31.3476 2.95355 29.2062 4.37954 27.8661C5.80554 26.5307 7.95169 26.5021 9.17738 27.8041C10.3983 29.1061 10.2314 31.2522 8.81493 32.5876Z" fill="#356793"/>
<path d="M43.3155 52.3846C40.7258 52.9426 38.055 53.0237 35.3032 52.6231C34.7356 52.542 34.1061 52.4132 33.4098 52.2368C33.343 52.2177 33.2762 52.1986 33.2047 52.1796L32.6944 59.1378C35.1744 59.5862 37.6878 59.7149 40.2345 59.5194C42.3378 59.3572 44.4124 59.0091 46.4488 58.4511L47.8701 50.8919C47.4504 51.0874 47.0211 51.2591 46.5681 51.426C45.4473 51.8362 44.3647 52.1557 43.3155 52.3846Z" fill="#EF7B8F"/>
<path d="M137.57 62.028H134.303L114.429 94.7162H119.227L123.615 87.3192H138.399L140.007 94.7162H144.905L137.57 62.028ZM125.942 83.4561L134.536 69.1341L137.608 83.4561H125.942Z" fill="#EF7B8F"/>
<path d="M164.353 71.8669C161.139 71.8669 158.091 73.2357 155.983 75.4486L156.584 72.339H152.263L146.602 101.956H150.919L152.893 91.6544C154.152 93.8673 156.627 95.1836 159.894 95.1836C166.137 95.1836 171.913 90.0996 173.162 83.5515C174.417 76.9557 170.587 71.8669 164.353 71.8669ZM168.751 83.499C167.883 88.025 164.258 91.1775 159.942 91.1775C155.669 91.1775 153.346 88.0202 154.2 83.5467C155.063 79.0303 158.597 75.8683 162.918 75.8683C167.182 75.8683 169.604 79.0302 168.751 83.499Z" fill="#EF7B8F"/>
<path d="M191.266 71.8669C188.052 71.8669 185.004 73.2357 182.901 75.4486L183.492 72.339H179.176L173.51 101.956H177.831L179.801 91.6544C181.06 93.8673 183.545 95.1836 186.807 95.1836C193.045 95.1836 198.816 90.0996 200.075 83.5515C201.329 76.9557 197.509 71.8669 191.266 71.8669ZM195.668 83.499C194.8 88.025 191.176 91.1775 186.855 91.1775C182.581 91.1775 180.264 88.0202 181.112 83.5467C181.98 79.0303 185.51 75.8683 189.831 75.8683C194.104 75.8683 196.522 79.0302 195.668 83.499Z" fill="#EF7B8F"/>
<path d="M23.714 62.0089H36.8055C43.139 62.0089 47.25 65.996 46.1388 72.258C45.0276 78.52 39.5001 82.507 33.1666 82.507H26.504L24.3578 94.6113H17.9289L23.714 62.0089ZM29.2319 67.1549L27.4244 77.3563H33.4241C36.4955 77.3563 39.1471 75.4533 39.7147 72.2532C40.2727 69.1007 38.303 67.1501 35.2316 67.1501H29.2319V67.1549Z" fill="#356793"/>
<path d="M52.3293 61.0789H58.5197L52.5725 94.6113H46.3821L52.3293 61.0789Z" fill="#356793"/>
<path d="M57.9999 83.4323C59.1779 76.7983 64.796 71.7429 70.9865 71.7429C73.7288 71.7429 75.8701 72.7158 77.1912 74.3421L77.568 72.2103H83.7107L79.738 94.6113H73.5952L73.972 92.4795C72.0786 94.101 69.5891 95.0787 66.8945 95.0787C60.6611 95.0739 56.8266 90.0662 57.9999 83.4323ZM75.9178 83.3845C76.5426 79.8601 74.6254 77.3563 71.1725 77.3563C67.772 77.3563 64.9629 79.8601 64.3382 83.3845C63.7039 86.9567 65.6259 89.4605 69.0263 89.4605C72.4792 89.4605 75.2835 86.9567 75.9178 83.3845Z" fill="#356793"/>
<path d="M87.8075 72.2103H93.9979L93.6212 74.3421C95.5145 72.7206 98.0041 71.7429 100.699 71.7429C105.754 71.7429 108.701 75.916 107.905 80.4133L105.387 94.6065H99.1964L101.476 81.7583C101.943 79.1161 100.384 77.2609 97.6893 77.2609C95.0424 77.2609 92.777 79.1161 92.3096 81.7583L90.0299 94.6065H83.8395L87.8075 72.2103Z" fill="#356793"/>
</svg>
