<?xml version="1.0" encoding="utf-8"?>
<!-- Generator: Adobe Illustrator 27.1.1, SVG Export Plug-In . SVG Version: 6.00 Build 0)  -->
<svg version="1.1" id="Layer_1" xmlns="http://www.w3.org/2000/svg" xmlns:xlink="http://www.w3.org/1999/xlink" x="0px" y="0px"
	 viewBox="0 0 900 750" style="enable-background:new 0 0 900 750;" xml:space="preserve">
<style type="text/css">
	.st0{fill:#356793;}
	.st1{fill:#EF7B8F;}
</style>
<g>
	<g>
		<g>
			<g>
				<path class="st0" d="M383.76,416.16c-5.56,0-10.07,1.92-13.64,5.36l0.81-4.36h-4.42c-5.15,0-9.53,3.65-10.47,8.68l-7.54,40.22
					h13.26l5.08-27.03c1.37-7.29,5.88-10.83,11.65-10.83c2.72,0,4.5,0.8,5.82,2.42l10.1-9.52
					C391.99,417.67,388.53,416.16,383.76,416.16z"/>
				<path class="st0" d="M432.02,417.16l-0.88,4.67c-2.77-3.56-7.35-5.67-13.22-5.67c-13.26,0-25.46,11.03-28.17,25.5
					c-2.72,14.5,5.35,25.42,18.73,25.42c5.76,0,11.12-2.13,15.23-5.66l-0.88,4.66h13.15l9.18-48.9H432.02z M428.14,441.56
					c-1.44,7.8-7.54,13.27-14.93,13.27c-7.3,0-11.32-5.47-9.87-13.27c1.44-7.69,7.53-13.17,14.82-13.17
					C425.54,428.4,429.59,433.88,428.14,441.56z"/>
				<path class="st0" d="M470.81,454.72c-7.39,0-11.75-5.35-10.3-13.15c1.46-7.69,7.83-13.06,15.23-13.06c4.33,0,7.6,1.52,9.7,4.36
					l10.12-8.6c-3.78-5.26-9.89-8.2-17.5-8.2c-14.88,0-28.4,11.04-31.13,25.6c-2.71,14.5,6.58,25.42,21.55,25.42
					c7.71,0,14.82-2.82,20.81-8.31l-7-8.6C479.21,453.12,475.26,454.72,470.81,454.72z"/>
				<path class="st0" d="M526.37,417.16l3.82-20.35h-13.26l-3.82,20.35h-11.44l-2.19,11.65h11.44l-6.98,37.26h13.26l7-37.26h11.44
					l2.17-11.65H526.37z"/>
				<polygon class="st0" points="545.31,417.16 536.13,466.06 549.5,466.06 558.67,417.16 				"/>
				<path class="st1" d="M556.33,394.08c-4.36,0-8.12,3.34-8.93,7.59c-0.79,4.26,1.72,7.6,6.08,7.6c4.34,0,8.11-3.34,8.91-7.6
					C563.19,397.42,560.68,394.08,556.33,394.08z"/>
				<path class="st0" d="M585.37,454.72c-7.39,0-11.75-5.35-10.28-13.15c1.43-7.69,7.82-13.06,15.21-13.06
					c4.36,0,7.62,1.52,9.72,4.36l10.11-8.6c-3.77-5.26-9.9-8.2-17.49-8.2c-14.88,0-28.4,11.04-31.13,25.6
					c-2.72,14.5,6.56,25.42,21.55,25.42c7.7,0,14.81-2.82,20.79-8.31l-6.98-8.6C593.78,453.12,589.83,454.72,585.37,454.72z"/>
				<path class="st0" d="M639.65,416.05c-14.47,0-27.79,11.04-30.5,25.51c-2.77,14.78,6.55,25.51,21.83,25.51
					c7.91,0,15.42-2.82,21.32-8.41l-6.33-7.78c-3.56,3.33-8.14,5.04-12.99,5.04c-6.78,0-10.88-3.53-11.36-9.61l35.76-0.1
					c0.92-2.22,1.47-4.05,1.79-5.78C661.81,426.38,653.63,416.05,639.65,416.05z M623.49,436.39c2.68-5.76,7.79-9.21,14.08-9.3
					c6.18,0,9.43,3.24,9.59,9.3H623.49z"/>
			</g>
			<g>
				<path class="st0" d="M357.39,395.06c-1.66-6.29-5.43-11.93-10.43-15.85c-3.39-2.67-7.2-4.54-11.39-5.58
					c-2.79-0.71-5.61-1.04-8.49-1.01c-4.11,0.05-8.16,0.84-12.14,2.35c-1.39,0.53-2.63,1.07-3.7,1.64
					c-6.87,3.57-12.2,8.71-16.02,15.39c-2.02,3.55-3.42,7.43-4.17,11.62c-0.17,0.93-0.32,2.26-0.48,4.01
					c-0.46,5.43-1.38,15.77-2.72,31c-0.09,0.97-0.17,1.9-0.26,2.75c-0.9,10.03-1.39,15.58-1.46,16.58
					c-0.01,0.25-0.08,0.58,0.14,0.71c3.1,2.09,6.67,3.95,10.74,5.57c0.75,0.31,1.59,0.61,2.53,0.92l2.04-21.86l0.08-0.85l0.71-8.33
					c0-0.06,0.09-0.1,0.15-0.05c2.81,2.13,5.91,3.71,9.29,4.77c6.82,2.14,14.15,1.9,20.96-0.4c3.21-1.08,6.19-2.55,8.91-4.4
					c0.53-0.37,1.06-0.75,1.56-1.12c0.19-0.14,0.37-0.28,0.55-0.43c5.24-4.04,9.18-9.1,11.81-15.19c0.08-0.15,0.14-0.32,0.21-0.48
					c1.17-2.79,1.91-5.73,2.32-8.69c0.04-0.19,0.06-0.4,0.09-0.59C358.75,403.36,358.47,399.21,357.39,395.06z M337.58,420.12
					c-8.24,7.88-20.76,8.15-27.99,0.59c-7.2-7.53-6.36-20.03,1.88-27.91c8.23-7.87,20.75-8.14,27.96-0.61
					C346.66,399.75,345.82,412.25,337.58,420.12z M434.75,344.61c-27.61,0.12-62.34,0.25-104.18,0.37
					c-1.64,0.01-2.99,0.04-4.04,0.08c-3.69,0.17-7.2,0.58-10.54,1.24c-3.95,0.79-7.76,1.96-11.44,3.51
					c-7.27,3.06-13.83,7.2-19.65,12.45c-8.52,7.67-14.81,16.79-18.82,27.38c-0.94,2.45-1.72,5.04-2.36,7.76
					c-0.03,0.08-0.1,0.1-0.15,0.05c-1.99-2.09-4.37-3.34-7.17-3.73c-1.74-0.25-3.39-0.15-4.93,0.26c-1.19,0.32-2.23,0.71-3.1,1.15
					c-1.3,0.66-2.5,1.51-3.59,2.55c-2.23,2.17-3.65,4.73-4.23,7.74c-0.76,3.88,0.32,7.89,3.03,10.76c0.93,0.99,2.02,1.78,3.25,2.37
					c2.53,1.24,5.2,1.57,8.01,1.02c2.63-0.52,4.98-1.7,7.04-3.56c0.12-0.1,0.18-0.08,0.19,0.09c0.26,4.38,1.06,8.77,2.39,13.17
					c1.81,5.92,4.5,11.37,8.11,16.34c0.14,0.19,0.28,0.36,0.43,0.49c0.09,0.08,0.14,0.05,0.14-0.06c0.58-7.2,1.19-13.97,1.78-20.3
					c0.21-2.23,0.61-6.72,1.19-13.45c0.04-0.49,0.05-0.93,0.05-1.3c-0.15-6.31,0.9-12.33,3.12-18.07c2.57-6.6,6.4-12.51,11.5-17.71
					c4.95-5.07,10.64-9.03,17.08-11.92c5.91-2.66,12.34-4.02,18.75-4.1c6-0.06,13.61-0.1,22.84-0.1c0.46,0,1.39,0,2.79-0.01
					c0.22,0,21.37-0.08,63.46-0.25c0.18,0,0.25,0.09,0.19,0.25l-10.09,32.28c-0.03,0.09-0.1,0.14-0.18,0.14
					c-11.01-0.01-17.35-0.01-19,0.01c-1.66,0.01-3.21,0.3-4.64,0.84c-3.22,1.21-5.75,3.3-7.61,6.27c-1.28,2.05-2,4.22-2.15,6.49
					c-0.03,0.55-0.08,1.11-0.13,1.66h2.79c2.54-0.67,5.22-1.02,8-1.02c1.21,0,2.35,0.06,3.43,0.21c0-0.09,0-0.15,0.01-0.23
					c0.01-0.05,0.05-0.1,0.12-0.1h29.24c0.1,0,0.19-0.06,0.22-0.17l18.96-60.69C434.89,344.66,434.86,344.61,434.75,344.61z
					 M258.14,411.66c-2.99,2.8-7.49,2.86-10.06,0.13c-2.57-2.73-2.23-7.22,0.76-10.03c2.99-2.8,7.49-2.86,10.06-0.13
					C261.46,404.36,261.11,408.86,258.14,411.66z"/>
			</g>
		</g>
		<path class="st1" d="M330.48,453.17c-5.43,1.17-11.03,1.34-16.8,0.5c-1.19-0.17-2.51-0.44-3.97-0.81
			c-0.14-0.04-0.28-0.08-0.43-0.12l-1.07,14.59c5.2,0.94,10.47,1.21,15.81,0.8c4.41-0.34,8.76-1.07,13.03-2.24l2.98-15.85
			c-0.88,0.41-1.78,0.77-2.73,1.12C334.95,452.02,332.68,452.69,330.48,453.17z"/>
	</g>
	<g>
		<path class="st1" d="M528.11,473.39h-6.85l-41.67,68.54h10.06l9.2-15.51h31l3.37,15.51h10.27L528.11,473.39z M503.73,518.32
			l18.02-30.03l6.44,30.03H503.73z"/>
		<path class="st1" d="M584.27,494.02c-6.74,0-13.13,2.87-17.55,7.51l1.26-6.52h-9.06l-11.87,62.1h9.05l4.14-21.6
			c2.64,4.64,7.83,7.4,14.68,7.4c13.09,0,25.2-10.66,27.82-24.39C605.37,504.69,597.34,494.02,584.27,494.02z M593.49,518.41
			c-1.82,9.49-9.42,16.1-18.47,16.1c-8.96,0-13.83-6.62-12.04-16c1.81-9.47,9.22-16.1,18.28-16.1
			C590.2,502.41,595.28,509.04,593.49,518.41z"/>
		<path class="st1" d="M640.7,494.02c-6.74,0-13.13,2.87-17.54,7.51l1.24-6.52h-9.05l-11.88,62.1h9.06l4.13-21.6
			c2.64,4.64,7.85,7.4,14.69,7.4c13.08,0,25.18-10.66,27.82-24.39C661.8,504.69,653.79,494.02,640.7,494.02z M649.93,518.41
			c-1.82,9.49-9.42,16.1-18.48,16.1c-8.96,0-13.82-6.62-12.04-16c1.82-9.47,9.22-16.1,18.28-16.1
			C646.65,502.41,651.72,509.04,649.93,518.41z"/>
		<g>
			<path class="st0" d="M289.38,473.35h27.45c13.28,0,21.9,8.36,19.57,21.49c-2.33,13.13-13.92,21.49-27.2,21.49h-13.97l-4.5,25.38
				h-13.48L289.38,473.35z M300.95,484.14l-3.79,21.39h12.58c6.44,0,12-3.99,13.19-10.7c1.17-6.61-2.96-10.7-9.4-10.7H300.95z"/>
			<path class="st0" d="M349.38,471.4h12.98l-12.47,70.31h-12.98L349.38,471.4z"/>
			<path class="st0" d="M361.27,518.27c2.47-13.91,14.25-24.51,27.23-24.51c5.75,0,10.24,2.04,13.01,5.45l0.79-4.47h12.88
				l-8.33,46.97h-12.88l0.79-4.47c-3.97,3.4-9.19,5.45-14.84,5.45C366.85,542.68,358.81,532.18,361.27,518.27z M398.84,518.17
				c1.31-7.39-2.71-12.64-9.95-12.64c-7.13,0-13.02,5.25-14.33,12.64c-1.33,7.49,2.7,12.74,9.83,12.74
				C391.63,530.91,397.51,525.66,398.84,518.17z"/>
			<path class="st0" d="M423.77,494.74h12.98l-0.79,4.47c3.97-3.4,9.19-5.45,14.84-5.45c10.6,0,16.78,8.75,15.11,18.18l-5.28,29.76
				h-12.98l4.78-26.94c0.98-5.54-2.29-9.43-7.94-9.43c-5.55,0-10.3,3.89-11.28,9.43l-4.78,26.94h-12.98L423.77,494.74z"/>
		</g>
	</g>
</g>
</svg>
